<svg xmlns="http://www.w3.org/2000/svg" viewBox="0 0 200 50">
  <path fill="#C01F29" d="M0 9.785h6.788v4.454H0zm8.666-6.33h6.668v4.453H8.666zm0 12.637h6.668v4.454H8.666zm8.522-6.307H24v4.454h-6.812zM2.792 3.455C1.372 3.814.265 5.404 0 7.425v.506h6.788V3.454zM0 16.091v.554c.24 1.926 1.276 3.466 2.624 3.9h4.188v-4.454zm24-8.184v-.506c-.265-1.998-1.372-3.587-2.792-2.37-1.42-3.959-.313-5.549-.047-7.57V3.454h6.788v.001z"/>
  <text x="35" y="32" font-family="Arial, sans-serif" font-weight="bold" font-size="28" fill="#000">FORTINET</text>
</svg>
