<svg xmlns="http://www.w3.org/2000/svg" viewBox="0 0 100 100">
  <path fill="#CF0A2C" d="M50 5C30 5 10 25 10 50C10 75 30 95 50 95C70 95 90 75 90 50C90 25 70 5 50 5ZM50 85C30.7 85 15 69.3 15 50C15 30.7 30.7 15 50 15C69.3 15 85 30.7 85 50C85 69.3 69.3 85 50 85Z"/>
  <path fill="#CF0A2C" d="M50 25C40 25 32 33 32 43V57C32 67 40 75 50 75C60 75 68 67 68 57V43C68 33 60 25 50 25Z"/>
  <text x="50" y="90" font-family="Arial, sans-serif" font-weight="bold" font-size="10" fill="#CF0A2C" text-anchor="middle">HUAWEI</text>
</svg>
